<svg width="34" height="34" viewBox="0 0 34 34" fill="none" xmlns="http://www.w3.org/2000/svg">
<circle cx="17" cy="17" r="16" stroke="white" stroke-width="2"/>
<path d="M25.0982 7.48413C25.0982 7.48413 23.6499 7.48413 22.1788 9.42449C21.4509 8.78357 19.2374 8.7775 18.504 8.7775C17.7678 8.7775 15.5557 8.78357 14.827 9.42449C13.356 7.48413 11.9111 7.48413 11.9111 7.48413C11.1246 9.22075 11.7402 10.3989 11.8884 10.7179C11.1536 11.3648 10.4153 12.0118 10.4153 15.2456C10.4153 18.4793 13.0885 20.1013 16.3009 20.4197C15.8879 20.7356 15.5653 21.713 15.5653 22.36C14.7402 22.6832 12.444 22.9937 11.1536 21.0666C11.1536 21.0666 10.418 19.7733 8.94768 19.7733C8.94768 19.7733 7.47732 19.6514 8.94768 20.4203C8.94768 20.4203 9.68321 21.0673 10.418 22.3606C10.418 22.3606 11.541 25.0626 15.5653 24.301C15.5736 25.353 15.5653 26.8883 15.5653 26.8883H21.444V22.3606C21.444 21.8489 21.1228 20.7356 20.7085 20.4203C23.9208 20.1019 26.5906 18.4799 26.5906 15.2462C26.5906 12.0124 25.8551 11.3655 25.1202 10.7185C25.2698 10.3989 25.884 9.22075 25.0982 7.48413V7.48413Z" fill="white"/>
</svg>
