<svg width="34" height="34" viewBox="0 0 34 34" fill="none" xmlns="http://www.w3.org/2000/svg">
<path d="M22.4846 9H11.8459C10.2768 9 9 10.2288 9 11.7395V22.0273C9 23.5378 10.2765 24.7668 11.8459 24.7668H22.4844C24.0535 24.7668 25.3303 23.538 25.3303 22.0273V11.7392C25.3303 10.2288 24.0538 9 22.4846 9ZM19.6261 16.8542C19.6261 18.1605 18.5223 19.223 17.1653 19.223C15.8083 19.223 14.7044 18.1605 14.7044 16.8542C14.7044 16.2062 14.9766 15.6187 15.4159 15.1907H18.9144C19.3542 15.6187 19.6261 16.2062 19.6261 16.8542ZM20.3396 11.1918H22.8323V13.6636H20.3396V11.1918ZM22.4846 23.1526H11.8459C11.2012 23.1526 10.6767 22.6477 10.6767 22.0271V15.1907H13.4109C13.1675 15.6978 13.0277 16.26 13.0277 16.8542C13.0277 19.0506 14.8838 20.837 17.1653 20.837C19.4467 20.837 21.3028 19.0503 21.3028 16.8542C21.3028 16.26 21.1631 15.6978 20.9197 15.1907H23.6536V22.0271C23.6536 22.6477 23.1291 23.1526 22.4846 23.1526Z" fill="white"/>
<circle cx="17" cy="17" r="16" stroke="white" stroke-width="2"/>
</svg>
