<svg width="34" height="31" viewBox="0 0 34 31" fill="none" xmlns="http://www.w3.org/2000/svg">
<path d="M16.9999 0.5C7.68776 0.5 0.111572 7.16808 0.111572 15.3643C0.111572 23.5607 7.68776 30.2286 16.9999 30.2286C26.3123 30.2286 33.8888 23.5607 33.8888 15.3643C33.8885 7.16808 26.312 0.5 16.9999 0.5ZM16.9999 28.7625C8.60612 28.7625 1.77728 22.7522 1.77728 15.3643C1.77728 7.97661 8.60612 1.96605 16.9999 1.96605C25.3937 1.96605 32.2231 7.97661 32.2231 15.3643C32.2228 22.7522 25.3937 28.7625 16.9999 28.7625Z" fill="white"/>
<path d="M12.3304 12.2147H8.42212V21.1904H12.3304V12.2147Z" fill="white"/>
<path d="M10.3374 10.7829C11.4298 10.7829 12.3154 10.0718 12.3154 9.19467C12.3154 8.31752 11.4298 7.60645 10.3374 7.60645C9.24497 7.60645 8.35938 8.31752 8.35938 9.19467C8.35938 10.0718 9.24497 10.7829 10.3374 10.7829Z" fill="white"/>
<path d="M22.1543 12.012C21.3539 12.012 20.6757 12.1402 20.1183 12.3966C19.5614 12.6531 19.0111 13.0797 18.4667 13.6769V12.2148H14.8271V21.1904H18.7355V16.88C18.7355 16.0629 18.8829 15.497 19.1774 15.1813C19.472 14.8659 19.8556 14.708 20.3295 14.708C20.7585 14.708 21.0913 14.8251 21.3284 15.0589C21.5655 15.2927 21.6835 15.6913 21.6835 16.255V21.1904H25.6112V15.4858C25.6112 14.3024 25.3053 13.4277 24.6937 12.8613C24.0829 12.2949 23.2359 12.012 22.1543 12.012Z" fill="white"/>
</svg>
